HIERARCHY
ROOT Hips
{
 OFFSET 0.000000 0.000000 0.000000
 CHANNELS 6 Xposition Yposition Zposition Yrotation Xrotation Zrotation
 JOINT Chest
 {
  OFFSET 0.000000 10.366939 -0.000175
  CHANNELS 3 Yrotation Xrotation Zrotation
  JOINT Chest2
  {
   OFFSET 0.000000 11.433790 0.000318
   CHANNELS 3 Yrotation Xrotation Zrotation
   JOINT Chest3
   {
    OFFSET 0.000000 10.331133 0.000000
    CHANNELS 3 Yrotation Xrotation Zrotation
    JOINT Chest4
    {
     OFFSET 0.000000 10.331133 0.000000
     CHANNELS 3 Yrotation Xrotation Zrotation
     JOINT Neck
     {
      OFFSET 0.000000 14.530095 0.000000
      CHANNELS 3 Yrotation Xrotation Zrotation
      JOINT Head
      {
       OFFSET 0.000000 9.616255 0.000757
       CHANNELS 3 Yrotation Xrotation Zrotation
       End Site
       {
        OFFSET 0.000000 18.398191 0.000395
       }
      }
     }
     JOINT RightCollar
     {
      OFFSET -3.159467 8.107572 0.000000
      CHANNELS 3 Yrotation Xrotation Zrotation
      JOINT RightShoulder
      {
       OFFSET -14.759419 0.000000 0.000000
       CHANNELS 3 Yrotation Xrotation Zrotation
       JOINT RightElbow
       {
        OFFSET 0.000000 -31.561777 0.000000
        CHANNELS 3 Yrotation Xrotation Zrotation
        JOINT RightWrist
        {
         OFFSET 0.000000 -25.811607 0.000000
         CHANNELS 3 Yrotation Xrotation Zrotation
         End Site
         {
          OFFSET 0.000000 -19.296333 0.000000
         }
        }
       }
      }
     }
     JOINT LeftCollar
     {
      OFFSET 3.159467 8.107572 0.000000
      CHANNELS 3 Yrotation Xrotation Zrotation
      JOINT LeftShoulder
      {
       OFFSET 14.759419 0.000000 0.000000
       CHANNELS 3 Yrotation Xrotation Zrotation
       JOINT LeftElbow
       {
        OFFSET 0.000000 -31.561777 0.000000
        CHANNELS 3 Yrotation Xrotation Zrotation
        JOINT LeftWrist
        {
         OFFSET 0.000000 -25.811607 0.000000
         CHANNELS 3 Yrotation Xrotation Zrotation
         End Site
         {
          OFFSET 0.000000 -19.296333 0.000000
         }
        }
       }
      }
     }
    }
   }
  }
 }
 JOINT RightHip
 {
  OFFSET -8.420485 0.000859 0.000088
  CHANNELS 3 Yrotation Xrotation Zrotation
  JOINT RightKnee
  {
   OFFSET 0.000000 -43.611855 -0.000083
   CHANNELS 3 Yrotation Xrotation Zrotation
   JOINT RightAnkle
   {
    OFFSET 0.000000 -42.630478 -0.000140
    CHANNELS 3 Yrotation Xrotation Zrotation
    JOINT RightToe
    {
     OFFSET 0.000000 -7.539428 17.119853
     CHANNELS 3 Yrotation Xrotation Zrotation
     End Site
     {
      OFFSET 0.000000 -1.595212 6.940629
     }
    }
   }
  }
 }
 JOINT LeftHip
 {
  OFFSET 8.420485 0.000859 0.000088
  CHANNELS 3 Yrotation Xrotation Zrotation
  JOINT LeftKnee
  {
   OFFSET 0.000000 -43.611855 -0.000083
   CHANNELS 3 Yrotation Xrotation Zrotation
   JOINT LeftAnkle
   {
    OFFSET 0.000000 -42.630478 -0.000140
    CHANNELS 3 Yrotation Xrotation Zrotation
    JOINT LeftToe
    {
     OFFSET 0.000000 -7.539428 17.119853
     CHANNELS 3 Yrotation Xrotation Zrotation
     End Site
     {
      OFFSET 0.000000 -1.595212 6.940629
     }
    }
   }
  }
 }
}
MOTION
Frames: 15
Frame Time: 0.008333
408.366371 46.930373 122.156255 -79.414924 -15.215558 1.132157 1.210000 12.519899 -0.316610 0.314115 5.500249 -0.583105 0.314115 5.500249 -0.583105 0.240667 4.124893 -0.439827 2.390880 11.912207 0.331057 4.433770 -14.036357 -0.394217 0.055631 4.217555 11.320585 2.820860 -24.848958 -25.310889 68.653353 -49.468848 -37.249336 19.956893 -9.092747 9.977480 0.796093 2.112415 -8.780630 -0.776537 -27.215366 13.332051 -51.058260 -30.647526 15.397830 -22.586209 -1.255742 -13.102570 -9.545533 -78.347489 -12.192599 174.645097 67.228627 168.200753 2.434848 -19.313119 1.326209 -0.328718 0.772323 -0.142635 -17.909325 -79.352903 43.718332 -147.200715 63.173322 -148.708425 0.335889 -13.853946 -1.456369 -0.414722 -1.230846 -0.223468
408.366387 46.928517 122.154897 -79.410765 -15.218799 1.124687 1.207445 12.527165 -0.309899 0.314964 5.502561 -0.581378 0.314964 5.502561 -0.581378 0.241290 4.126627 -0.438542 2.403041 11.910893 0.329842 4.457602 -14.038420 -0.401808 0.056529 4.205906 11.320170 2.821710 -24.849745 -25.314765 68.662984 -49.463232 -37.263602 19.949018 -9.091936 9.978637 0.797068 2.098396 -8.785984 -0.783708 -27.216259 13.328371 -51.063633 -30.589404 15.389533 -22.554531 -1.299862 -13.066872 -9.568082 -78.343718 -12.175475 174.635167 67.227835 168.192313 2.446950 -19.315340 1.323887 -0.336224 0.774832 -0.145375 -17.947614 -79.350942 43.749450 -147.206070 63.167982 -148.712604 0.338270 -13.856539 -1.436935 -0.417960 -1.230120 -0.231511
408.369314 46.925538 122.155377 -79.402827 -15.210369 1.126169 1.197338 12.522773 -0.310454 0.315877 5.503550 -0.580860 0.315877 5.503550 -0.580860 0.241971 4.127368 -0.438162 2.414233 11.910081 0.327674 4.479977 -14.039540 -0.410790 0.055765 4.202458 11.319423 2.838266 -24.845782 -25.329978 68.659987 -49.460248 -37.275029 19.942995 -9.097589 9.980509 0.799606 2.091861 -8.790167 -0.783052 -27.217430 13.324014 -51.061979 -30.572366 15.393693 -22.545071 -1.319963 -13.067904 -9.548169 -78.353831 -12.197726 174.635708 67.227353 168.195762 2.423828 -19.320096 1.331312 -0.334765 0.781193 -0.145001 -17.953376 -79.360034 43.741785 -147.214425 63.170343 -148.723799 0.339600 -13.867190 -1.412285 -0.421875 -1.222557 -0.240887
408.373500 46.922361 122.154349 -79.390069 -15.204518 1.122142 1.186975 12.519084 -0.308948 0.315583 5.505405 -0.580189 0.315583 5.505405 -0.580189 0.241745 4.128761 -0.437657 2.425503 11.907927 0.325242 4.502654 -14.043139 -0.420359 0.050209 4.195541 11.317817 2.852238 -24.838227 -25.330365 68.668307 -49.454348 -37.300082 19.932216 -9.102812 9.990625 0.802911 2.080992 -8.787307 -0.789398 -27.218426 13.315527 -51.067878 -30.516651 15.391177 -22.511836 -1.357416 -13.048039 -9.572892 -78.360910 -12.181837 174.627219 67.227824 168.189819 2.406730 -19.324851 1.328994 -0.328942 0.788094 -0.141556 -17.994371 -79.363453 43.765732 -147.202850 63.171544 -148.717520 0.341808 -13.879793 -1.390407 -0.421431 -1.212716 -0.246782
408.375345 46.919838 122.153215 -79.396235 -15.207523 1.118792 1.193590 12.527780 -0.302099 0.315992 5.507524 -0.578577 0.315992 5.507524 -0.578577 0.242039 4.130350 -0.436453 2.440081 11.907044 0.319811 4.532912 -14.044171 -0.437039 0.038569 4.186631 11.312882 2.870564 -24.833092 -25.335355 68.689747 -49.452436 -37.331686 19.912496 -9.100168 10.007750 0.805272 2.073346 -8.797971 -0.795626 -27.223353 13.320168 -51.068351 -30.505847 15.393186 -22.499994 -1.364549 -13.052285 -9.574027 -78.356358 -12.170380 174.612116 67.230745 168.171990 2.414766 -19.329226 1.335482 -0.335606 0.795316 -0.146022 -17.996696 -79.355407 43.770215 -147.201566 63.168365 -148.716058 0.347597 -13.906093 -1.374528 -0.421008 -1.201891 -0.248288
408.378478 46.916909 122.152162 -79.388529 -15.210860 1.114852 1.186867 12.532150 -0.296680 0.314968 5.510120 -0.577304 0.314968 5.510120 -0.577304 0.241263 4.132299 -0.435492 2.452691 11.905111 0.314402 4.559430 -14.047205 -0.452875 0.038234 4.185029 11.308911 2.879712 -24.842396 -25.338085 68.707834 -49.448369 -37.349474 19.901875 -9.096884 10.012284 0.804173 2.063285 -8.808942 -0.803938 -27.224969 13.327438 -51.072281 -30.451262 15.387189 -22.472488 -1.403708 -13.034176 -9.569858 -78.355095 -12.182776 174.604281 67.231285 168.168733 2.424855 -19.329217 1.329507 -0.334847 0.798622 -0.145336 -17.994539 -79.352725 43.759555 -147.196907 63.166986 -148.711417 0.353339 -13.925115 -1.359191 -0.426138 -1.196034 -0.247058
408.380817 46.913936 122.149828 -79.381054 -15.212894 1.106586 1.181346 12.541297 -0.289759 0.315793 5.512858 -0.575651 0.315793 5.512858 -0.575651 0.241869 4.134352 -0.434261 2.467352 11.900542 0.309184 4.589869 -14.055074 -0.469325 0.039691 4.172920 11.306643 2.881675 -24.836175 -25.339967 68.726198 -49.447295 -37.373398 19.889327 -9.094769 10.014670 0.796945 2.050376 -8.811811 -0.806699 -27.226833 13.332652 -51.067135 -30.443874 15.385791 -22.472409 -1.408595 -13.040132 -9.595663 -78.350522 -12.162129 174.591514 67.232804 168.160152 2.424710 -19.335639 1.324836 -0.333890 0.806719 -0.143752 -18.009513 -79.347619 43.771671 -147.206729 63.170380 -148.719790 0.344219 -13.956142 -1.346058 -0.424168 -1.183360 -0.242444
408.384282 46.911062 122.147546 -79.373826 -15.212926 1.101819 1.172505 12.544748 -0.288732 0.315562 5.515186 -0.573915 0.315562 5.515186 -0.573915 0.241682 4.136099 -0.432959 2.484360 11.896759 0.304685 4.624470 -14.061437 -0.485381 0.044597 4.165450 11.303421 2.876790 -24.834306 -25.332528 68.746323 -49.442760 -37.402315 19.878365 -9.094083 10.028522 0.799807 2.044848 -8.817028 -0.816202 -27.232838 13.341228 -51.076624 -30.402080 15.387084 -22.454210 -1.436682 -13.031468 -9.624571 -78.351065 -12.138216 174.595558 67.236062 168.160626 2.440036 -19.336630 1.321980 -0.335568 0.811852 -0.144610 -18.009037 -79.345221 43.765158 -147.211206 63.175691 -148.722063 0.341035 -13.985940 -1.337442 -0.423137 -1.172097 -0.237384
408.385648 46.908350 122.149262 -79.368243 -15.219565 1.101138 1.165616 12.557419 -0.293735 0.314798 5.516876 -0.573461 0.314798 5.516876 -0.573461 0.241107 4.137367 -0.432612 2.502771 11.893131 0.300652 4.661554 -14.067483 -0.501143 0.048169 4.164172 11.309660 2.867017 -24.842718 -25.330408 68.780471 -49.441801 -37.427437 19.870347 -9.082495 10.036206 0.799713 2.044467 -8.815768 -0.818706 -27.241839 13.344878 -51.076040 -30.395981 15.393284 -22.461903 -1.439432 -13.039953 -9.612751 -78.343335 -12.154133 174.589619 67.236721 168.154406 2.418707 -19.341906 1.334030 -0.339132 0.817473 -0.148135 -17.983368 -79.338136 43.732573 -147.233461 63.178563 -148.745957 0.341364 -14.015632 -1.330281 -0.428138 -1.167134 -0.230702
408.387071 46.905132 122.148172 -79.357229 -15.221059 1.097048 1.155081 12.560774 -0.292182 0.312643 5.517051 -0.573839 0.312643 5.517051 -0.573839 0.239495 4.137500 -0.432876 2.521295 11.892461 0.295697 4.699160 -14.067991 -0.518603 0.049767 4.166145 11.305931 2.867256 -24.843750 -25.323830 68.788305 -49.440755 -37.442268 19.868963 -9.089177 10.041512 0.806177 2.039867 -8.819441 -0.824982 -27.239583 13.355058 -51.089803 -30.350869 15.393576 -22.450973 -1.475352 -13.023549 -9.632305 -78.344223 -12.149261 174.571050 67.232906 168.135993 2.437307 -19.346443 1.326709 -0.338403 0.821392 -0.149740 -17.995492 -79.332805 43.741597 -147.223299 63.179438 -148.735066 0.326561 -14.042690 -1.336496 -0.415815 -1.160092 -0.214312
408.388566 46.902471 122.147476 -79.347060 -15.217381 1.098021 1.143720 12.565362 -0.294745 0.309354 5.518653 -0.574477 0.309354 5.518653 -0.574477 0.237038 4.138705 -0.433325 2.539571 11.889712 0.287538 4.737734 -14.072235 -0.542170 0.055229 4.164298 11.307048 2.885069 -24.847312 -25.327884 68.777518 -49.441663 -37.449884 19.872758 -9.096530 10.047051 0.812198 2.030082 -8.823086 -0.839894 -27.239113 13.369484 -51.076563 -30.347682 15.397205 -22.452487 -1.472986 -13.023110 -9.635473 -78.346739 -12.154905 174.541538 67.231586 168.105980 2.424970 -19.356700 1.329974 -0.335393 0.830383 -0.150724 -17.971506 -79.335631 43.707875 -147.222711 63.180047 -148.730071 0.325619 -14.072034 -1.343547 -0.416407 -1.153818 -0.203668
408.389793 46.899617 122.146093 -79.339126 -15.217320 1.093792 1.134122 12.572752 -0.292108 0.306868 5.521460 -0.573614 0.306868 5.521460 -0.573614 0.235169 4.140813 -0.432657 2.558850 11.884519 0.279365 4.778316 -14.080972 -0.566296 0.060888 4.158796 11.301994 2.893465 -24.855856 -25.324720 68.771971 -49.439354 -37.459500 19.874390 -9.094811 10.051621 0.821907 2.013313 -8.827312 -0.851196 -27.235372 13.375001 -51.088020 -30.306049 15.397123 -22.432268 -1.501293 -12.998299 -9.657339 -78.345127 -12.140853 174.536283 67.231533 168.103076 2.417535 -19.365274 1.329359 -0.333132 0.836960 -0.150083 -17.995860 -79.336738 43.724929 -147.222535 63.176066 -148.730426 0.332783 -14.089416 -1.347262 -0.423497 -1.158402 -0.197720
408.391583 46.897188 122.143994 -79.333914 -15.214108 1.088246 1.131242 12.576472 -0.290151 0.307646 5.523991 -0.572825 0.307646 5.523991 -0.572825 0.235748 4.142711 -0.432074 2.573249 11.880008 0.272661 4.808908 -14.088643 -0.585492 0.063246 4.154518 11.305394 2.903718 -24.862938 -25.332156 68.753000 -49.443472 -37.450004 19.885665 -9.084703 10.051380 0.825333 2.003180 -8.828331 -0.874585 -27.234891 13.400144 -51.075744 -30.303491 15.388977 -22.433222 -1.512500 -12.996460 -9.692714 -78.343618 -12.107247 174.532616 67.234453 168.100711 2.414114 -19.377425 1.326318 -0.329018 0.846955 -0.147508 -18.020520 -79.339556 43.742958 -147.226783 63.174863 -148.734068 0.349532 -14.111772 -1.353041 -0.434300 -1.159181 -0.194379
408.395094 46.894713 122.142716 -79.326210 -15.209032 1.086320 1.123481 12.578033 -0.292872 0.307688 5.527183 -0.573084 0.307688 5.527183 -0.573084 0.235784 4.145105 -0.432270 2.588548 11.874804 0.268768 4.840037 -14.097674 -0.599725 0.061008 4.145550 11.304798 2.902937 -24.870733 -25.325469 68.754395 -49.445943 -37.448804 19.889908 -9.080963 10.052753 0.821582 1.995512 -8.827804 -0.879565 -27.243074 13.416935 -51.077034 -30.266901 15.375567 -22.422392 -1.546990 -12.970159 -9.703496 -78.348365 -12.100270 174.546467 67.238221 168.112727 2.415600 -19.381476 1.331798 -0.328248 0.851763 -0.149307 -18.027972 -79.343849 43.745231 -147.224107 63.177774 -148.732066 0.351798 -14.133277 -1.358854 -0.437041 -1.158070 -0.188570
408.395123 46.892954 122.140972 -79.325916 -15.212014 1.084916 1.122520 12.595466 -0.289975 0.305824 5.530489 -0.572817 0.305824 5.530489 -0.572817 0.234388 4.147586 -0.432054 2.606660 11.866828 0.262902 4.877495 -14.111679 -0.619060 0.065483 4.130753 11.302016 2.901895 -24.882187 -25.326612 68.752749 -49.451707 -37.444768 19.897425 -9.072466 10.058837 0.828062 1.982203 -8.827183 -0.892388 -27.248438 13.429777 -51.063027 -30.271737 15.370065 -22.422275 -1.543538 -12.968365 -9.715740 -78.344029 -12.087790 174.561873 67.240162 168.123740 2.439777 -19.387652 1.327236 -0.329967 0.855397 -0.148462 -18.022236 -79.336345 43.746791 -147.211755 63.173181 -148.718569 0.346851 -14.164920 -1.371151 -0.431419 -1.153377 -0.178382
